<svg width="104" height="40" viewBox="0 0 104 40" fill="none" xmlns="http://www.w3.org/2000/svg">
<g clip-path="url(#clip0_63_747)">
<path d="M97.5729 7.44554e-08L6.06329 0C2.62742 0 0 2.6 0 6V34C0 37.4 2.62742 40 6.06329 40H97.5729C101.009 40 103.636 37.4 103.636 34V6C103.636 2.6 101.009 7.44554e-08 97.5729 7.44554e-08ZM99.594 34C99.594 35.2 98.7856 36 97.5729 36H6.06329C4.85062 36 4.04219 35.2 4.04219 34V6C4.04219 4.8 4.85062 4 6.06329 4C6.06329 4 96.3607 4 97.5729 4C98.7856 4 99.594 4.8 99.594 6V34Z" fill="url(#paint0_linear_63_747)"/>
<path d="M14.6688 8.56877C14.0625 8.16877 13.4561 7.96877 12.6476 7.96877H8.60547V11.9688H12.6476V19.9688H10.6266V23.9688H12.6476V27.9688H8.60547V31.9688H12.6476C13.4561 31.9688 14.0625 31.7688 14.6688 31.3688C15.2751 31.7688 15.8814 31.9688 16.6899 31.9688H20.7321V27.9688H16.6899V23.9688H18.7109V19.9688H16.6899V11.9688H20.7321V7.96877H16.6899C15.8814 7.96877 15.2751 8.16877 14.6688 8.56877Z" fill="#F2F2F2"/>
<path d="M37.384 32.0312H33.4959L26.993 22.2888V32.0312H23.105V16.2363H26.993L33.4959 26.0237V16.2363H37.384V32.0312Z" fill="#F2F2F2"/>
<path d="M45.9776 32.1888C44.8104 32.1888 43.7645 32.0012 42.8398 31.6263C41.9152 31.2512 41.1724 30.6963 40.6116 29.9612C40.0659 29.2263 39.7779 28.3412 39.7476 27.3063H43.8858C43.9464 27.8912 44.151 28.3412 44.4997 28.6563C44.8483 28.9563 45.3031 29.1063 45.8639 29.1063C46.4399 29.1063 46.8947 28.9788 47.2281 28.7237C47.5616 28.4537 47.7284 28.0863 47.7284 27.6212C47.7284 27.2312 47.592 26.9088 47.3191 26.6537C47.0614 26.3988 46.7355 26.1888 46.3414 26.0237C45.9624 25.8588 45.4167 25.6712 44.7043 25.4612C43.6736 25.1463 42.8323 24.8312 42.1805 24.5163C41.5287 24.2012 40.9678 23.7363 40.4979 23.1212C40.028 22.5063 39.793 21.7037 39.793 20.7137C39.793 19.2437 40.3312 18.0963 41.4074 17.2712C42.4837 16.4312 43.8858 16.0112 45.6138 16.0112C47.3721 16.0112 48.7894 16.4312 49.8657 17.2712C50.9419 18.0963 51.5179 19.2512 51.5939 20.7363H47.3873C47.357 20.2263 47.1675 19.8288 46.8189 19.5437C46.4703 19.2437 46.0231 19.0937 45.4774 19.0937C45.0075 19.0937 44.6285 19.2212 44.3405 19.4763C44.0525 19.7163 43.9085 20.0688 43.9085 20.5337C43.9085 21.0437 44.151 21.4412 44.6361 21.7263C45.1212 22.0112 45.8791 22.3188 46.9098 22.6488C47.9406 22.9937 48.7743 23.3237 49.4109 23.6388C50.0627 23.9537 50.6236 24.4112 51.0935 25.0112C51.5635 25.6112 51.7986 26.3837 51.7986 27.3288C51.7986 28.2288 51.5635 29.0463 51.0935 29.7812C50.6388 30.5163 49.9718 31.1012 49.0926 31.5363C48.2135 31.9712 47.1751 32.1888 45.9776 32.1888Z" fill="#F2F2F2"/>
<path d="M58.0791 19.3188V22.5137H63.2862V25.4837H58.0791V28.9488H63.9678V32.0312H54.1909V16.2363H63.9678V19.3188H58.0791Z" fill="#F2F2F2"/>
<path d="M74.632 32.0312L71.3126 26.0688H70.3804V32.0312H66.4922V16.2363H73.0177C74.2757 16.2363 75.3446 16.4537 76.2237 16.8888C77.1183 17.3237 77.7849 17.9237 78.2247 18.6888C78.664 19.4388 78.8842 20.2788 78.8842 21.2088C78.8842 22.2588 78.581 23.1963 77.9747 24.0212C77.3833 24.8463 76.5042 25.4312 75.3368 25.7763L79.0203 32.0312H74.632ZM70.3804 23.3463H72.7903C73.5028 23.3463 74.0334 23.1737 74.3819 22.8288C74.746 22.4837 74.928 21.9963 74.928 21.3663C74.928 20.7663 74.746 20.2937 74.3819 19.9488C74.0334 19.6037 73.5028 19.4312 72.7903 19.4312H70.3804V23.3463Z" fill="#F2F2F2"/>
<path d="M92.8071 16.2363V19.3188H88.5781V32.0312H84.6899V19.3188H80.4609V16.2363H92.8071Z" fill="#F2F2F2"/>
</g>
<defs>
<linearGradient id="paint0_linear_63_747" x1="-58.8446" y1="-66.6089" x2="109.442" y2="-82.9228" gradientUnits="userSpaceOnUse">
<stop stop-color="#EC74E7"/>
<stop offset="0.75625" stop-color="#8468F5"/>
</linearGradient>
<clipPath id="clip0_63_747">
<rect width="103.636" height="40" fill="white"/>
</clipPath>
</defs>
</svg>
